<svg width="12" height="7" viewBox="0 0 12 7" fill="none" xmlns="http://www.w3.org/2000/svg">
    <path
        d="M1.8975 0.430763C1.74134 0.276141 1.53046 0.189403 1.3107 0.189403C1.09094 0.189403 0.880066 0.276141 0.723905 0.430763C0.646805 0.506691 0.585577 0.597196 0.543784 0.69701C0.501992 0.796824 0.480469 0.903953 0.480469 1.01216C0.480469 1.12037 0.501992 1.2275 0.543784 1.32732C0.585577 1.42713 0.646805 1.51763 0.723905 1.59356L5.4135 6.18956C5.57002 6.34397 5.78104 6.43054 6.00091 6.43054C6.22077 6.43054 6.43179 6.34397 6.5883 6.18956L11.2779 1.59356C11.355 1.51763 11.4162 1.42713 11.458 1.32732C11.4998 1.2275 11.5213 1.12037 11.5213 1.01216C11.5213 0.903953 11.4998 0.796824 11.458 0.69701C11.4162 0.597196 11.355 0.506691 11.2779 0.430763C11.1214 0.276355 10.9104 0.189784 10.6905 0.189784C10.4706 0.189784 10.2596 0.276355 10.1031 0.430763L5.9991 4.19996L1.8975 0.430763Z"
        fill="#2F2F2F" />
</svg>