<svg width="632" height="632" viewBox="0 0 632 632" fill="none" xmlns="http://www.w3.org/2000/svg">
<path d="M384.3 239C465.2 237.3 557.1 251.6 557.1 330.9C557.1 379.8 525.1 401.7 488 401.7C434.1 401.7 399.5 368 387.7 333.4C385.2 325.8 384.3 317.4 384.3 309.8V239ZM246.8 309.8C246.8 317.4 246 325.8 243.4 333.4C231.6 368 197 401.7 143.1 401.7C106 401.7 74 379.8 74 330.9C74 251.7 165.9 237.4 246.8 239V309.8ZM585.7 115.1L602.6 65.4C568.9 44.3 519.2 30 467.8 30C366.1 30 326.9 85.8 315.6 150.5C304.3 85.9 265.1 30 163.4 30C112 30 62.3001 44.3 28.6001 65.4L45.5 115.1C74.2 95.7 113.8 84.8 152.5 84.8C235.9 84 245.2 145.5 245.2 179.2V187.6C87.5999 186.8 0 240.7 0 339.3C0 398.3 42.1 456.4 124.7 456.4C182.9 456.4 229.9 427.7 251.8 395.7H254.3L261 447.1H305.9H325.2H370.1L376.8 395.7H379.3C401.2 427.7 448.3 456.4 506.4 456.4C589 456.4 631.1 398.2 631.1 339.3C631.1 240.7 543.5 186.8 385.9 187.6V179.2C385.9 145.5 395.2 84 478.6 84.8C517.5 84.8 557.1 95.8 585.7 115.1Z" fill="#E63C2E"/>
<path d="M573 492.1H58.1006C55.5006 492.1 53.4004 490 53.4004 487.4C53.4004 484.8 55.5006 482.7 58.1006 482.7H573C575.6 482.7 577.7 484.8 577.7 487.4C577.7 490 575.6 492.1 573 492.1Z" fill="#E63C2E"/>
<path d="M111.801 561.6C96.8005 561.3 79.7004 563.9 79.7004 578.6C79.7004 587.6 85.6005 591.7 92.5005 591.7C102.5 591.7 108.901 585.5 111.101 579C111.601 577.5 111.7 575.9 111.7 574.7V561.6H111.801ZM125.2 582.1C125.2 588.7 125.501 595.1 126.301 600.3H113.9L112.801 590.8H112.301C108.001 596.7 99.9006 602 89.1006 602C73.8006 602 65.9004 591.2 65.9004 580.2C65.9004 561.9 82.2005 551.9 111.5 552V550.5C111.5 544.4 109.801 533 94.3005 533.2C87.1005 533.2 79.8004 535.2 74.4004 538.8L71.3005 529.6C77.6005 525.7 86.8005 523 96.3005 523C119.401 523 125.101 538.8 125.101 553.8V582.1H125.2Z" fill="white"/>
<path d="M157.6 548.2C157.6 539.3 157.4 531.7 157 524.6H169L169.7 539.6H170.1C173.5 529.4 182 523.1 191.2 523.1C192.6 523.1 193.7 523.2 195 523.4V536.4C193.6 536.1 192.2 536.1 190.3 536.1C180.6 536.1 173.7 543.3 171.8 553.6C171.5 555.5 171.3 557.8 171.3 560V600.4H157.5V548.2H157.6Z" fill="white"/>
<path d="M274 545C274 537.1 273.7 530.8 273.4 524.5H285.5L286.101 536.9H286.601C290.801 529.7 297.9 523 310.5 523C320.7 523 328.501 529.2 331.801 538.2H332.101C334.401 533.8 337.6 530.7 340.7 528.3C345.2 524.9 350.101 523 357.301 523C367.501 523 382.301 529.6 382.301 555.8V600.2H368.801V557.5C368.801 542.8 363.4 534.2 352.4 534.2C344.4 534.2 338.5 540 336 546.6C335.4 548.6 334.9 551 334.9 553.5V600.3H321.5V554.9C321.5 542.9 316.2 534.2 305.7 534.2C297.3 534.2 290.8 541.1 288.7 548C287.9 549.9 287.601 552.4 287.601 554.7V600.3H274.101V545H274Z" fill="white"/>
<path d="M458.9 561.6C443.9 561.3 426.8 563.9 426.8 578.6C426.8 587.6 432.8 591.7 439.6 591.7C449.6 591.7 456 585.5 458.2 579C458.7 577.5 458.8 575.9 458.8 574.7V561.6H458.9ZM472.1 582.1C472.1 588.7 472.5 595.1 473.2 600.3H460.9L459.8 590.8H459.3C455.1 596.7 447 602 436.1 602C420.8 602 413 591.2 413 580.2C413 561.9 429.3 551.9 458.5 552V550.5C458.5 544.4 456.8 533 441.3 533.2C434.1 533.2 426.7 535.2 421.4 538.8L418.3 529.6C424.5 525.7 433.8 523 443.3 523C466.4 523 472.1 538.8 472.1 553.8V582.1Z" fill="white"/>
<path d="M563.4 597.6C559.8 599.3 551.8 602 541.7 602C518.9 602 504 586.5 504 563.4C504 540.1 520 523 544.7 523C552.9 523 560 525 563.8 527L560.6 537.5C557.3 535.8 552.2 533.9 544.6 533.9C527.2 533.9 517.9 546.9 517.9 562.5C517.9 580 529.1 590.8 544.2 590.8C552 590.8 557.2 588.9 561.1 587.2L563.4 597.6Z" fill="white"/>
<path d="M241.2 547.7H227.4V600.3H241.2V547.7Z" fill="white"/>
<path d="M246 522.5C246 529 241.4 534.2 233.9 534.2C226.9 534.2 222.4 529 222.4 522.5C222.4 516 227.201 510.6 234.301 510.6C241.301 510.6 246 515.8 246 522.5Z" fill="#E63C2E"/>
</svg>
